{"title":"Vibes (1988) fiveofseven","uid":15059156,"size":1113773458,"categoryP":"video","categoryS":"movies","magnet":"?xt=urn:btih:57a18c963c520db08dfc2586b28de966ea573976&amp;dn=Vibes+%281988%29+fiveofseven&amp;tr=udp%3A%2F%2Ftracker.leechers-paradise.org%3A6969&amp;tr=udp%3A%2F%2Fzer0day.ch%3A1337&amp;tr=udp%3A%2F%2Fopen.demonii.com%3A1337&amp;tr=udp%3A%2F%2Ftracker.coppersurfer.tk%3A6969&amp;tr=udp%3A%2F%2Fexodus.desync.com%3A6969","seeders":2,"leechers":1,"uploader":"fiveofseven","files":3,"time":1466748449,"description":"PLOT - Cyndi Lauper and Jeff Goldblum play two psychics hired by Peter Falk \r\nto find his long lost son in a foreign country. When they get there \r\nthey discover he's really looking to discover something else.\r\n\r\n\r\nINFO\r\n\r\nEncoder: fiveofseven\r\nSource: DVD\r\nRating: PG\r\nGenre: Adventure, Comedy, Romance\r\nSubtitles: English\r\nPoster: \r  https://yuq.me/users/25/564/Wbfsz6I3Fj.jpg \r\n\r\nGeneral\r\nComplete name                            : Vibes (1988) fiveofseven.mp4\r\nFormat                                   : MPEG-4\r\nFormat profile                           : Base Media\r\nCodec ID                                 : isom\r\nFile size                                : 1.03 GiB\r\nDuration                                 : 1h 39mn\r\nOverall bit rate mode                    : Variable\r\nOverall bit rate                         : 1 483 Kbps\r\nEncoded date                             : UTC 2016-04-29 12:43:13\r\nTagged date                              : UTC 2016-04-29 13:14:49\r\nWriting application                      : My MP4Box GUI 0.6.0.6 &lt;http://my-mp4box-gui.zymichost.com&gt;\r\n\r\nVideo\r\nID                                       : 1\r\nFormat                                   : AVC\r\nFormat/Info                              : Advanced Video Codec\r\nFormat profile                           :   \r\nFormat settings, CABAC                   : Yes\r\nFormat settings, ReFrames                : 7 frames\r\nCodec ID                                 : avc1\r\nCodec ID/Info                            : Advanced Video Coding\r\nDuration                                 : 1h 39mn\r\nBit rate                                 : 1 350 Kbps\r\nMaximum bit rate                         : 4 991 Kbps\r\nWidth                                    : 720 pixels\r\nHeight                                   : 384 pixels\r\nDisplay aspect ratio                     : 1.85:1\r\nFrame rate mode                          : Constant\r\nFrame rate                               : 29.970 fps\r\nColor space                              : YUV\r\nChroma subsampling                       : 4:2:0\r\nBit depth                                : 8 bits\r\nScan type                                : Progressive\r\nBits/(Pixel*Frame)                       : 0.163\r\nStream size                              : 962 MiB (91%)\r\nTitle                                    : V.mp4\r\nWriting library                          : x264 core 146 r2538 121396c\r\nLanguage                                 : English\r\nEncoded date                             : UTC 2016-04-29 09:59:49\r\nTagged date                              : UTC 2016-04-29 12:43:54\r\n\r\nAudio\r\nID                                       : 2\r\nFormat                                   : AAC\r\nFormat/Info                              : Advanced Audio Codec\r\nFormat profile                           : LC\r\nCodec ID                                 : 40\r\nDuration                                 : 1h 39mn\r\nBit rate mode                            : Variable\r\nBit rate                                 : 128 Kbps\r\nMaximum bit rate                         : 134 Kbps\r\nChannel count                            : 2 channels\r\nChannel positions                        : Front: L R\r\nSampling rate                            : 48.0 KHz\r\nCompression mode                         : Lossy\r\nStream size                              : 91.2 MiB (9%)\r\nTitle                                    : aac.mp4\r\nLanguage                                 : English\r\nEncoded date                             : UTC 2016-04-29 12:43:49\r\nTagged date                              : UTC 2016-04-29 12:43:54\r\n\r\n\r\nScreenshots - \r\n  \nhttps://yuq.me/users/25/564/RikPg9eCmB.png \r\n  \nhttps://yuq.me/users/25/564/SV3TgL0Ijb.png \r\n  \nhttps://yuq.me/users/25/564/RkLplInO4K.png \r\n  \nhttps://yuq.me/users/25/564/kCR0yXq7JM.png \r\n \r\nsignature \r\n  \nhttps://yuq.me/users/25/564/aegRQCBILx.png","torrent":{"xt":"urn:btih:57a18c963c520db08dfc2586b28de966ea573976","amp;dn":"Vibes+%281988%29+fiveofseven","amp;tr":["udp%3A%2F%2Ftracker.leechers-paradise.org%3A6969","udp%3A%2F%2Fzer0day.ch%3A1337","udp%3A%2F%2Fopen.demonii.com%3A1337","udp%3A%2F%2Ftracker.coppersurfer.tk%3A6969","udp%3A%2F%2Fexodus.desync.com%3A6969"],"infoHash":"57a18c963c520db08dfc2586b28de966ea573976","infoHashBuffer":{"type":"Buffer","data":[87,161,140,150,60,82,13,176,141,252,37,134,178,141,233,102,234,87,57,118]},"announce":[],"urlList":[]}}